# xmcd
#
# Track frame offsets:
#	150
#	21824
#	33299
#	57074
#	69374
#	91011
#	101248
#	124579
#	153340
#	168490
#	185140
#	215990
#	241909
#
# Disc length: 3415 seconds
#
# Revision: 0
# Processed by: cddbd v1.5.2PL0 Copyright (c) Steve Scherf et al.
# Submitted via: EZCDAudioConverter 3.0.7.1
#
DISCID=ac0d550d
DTITLE=Kemale  Amede - De Were
DYEAR=2014
DGENRE=World
TTITLE0=De Were
TTITLE1=Ape Me
TTITLE2=Dert Gıranım
TTITLE3=Mencole
TTITLE4=Şehit Namırın
TTITLE5=Buku u Zava
TTITLE6=Roniya Çave Mın
TTITLE7=Ez Bımrım
TTITLE8=Ha Gerilla
TTITLE9=Ez Hevalım
TTITLE10=Lori Hestıren Çavan
TTITLE11=Dıl Hesir
TTITLE12=Şirina Mın
EXTD=
EXTT0=
EXTT1=
EXTT2=
EXTT3=
EXTT4=
EXTT5=
EXTT6=
EXTT7=
EXTT8=
EXTT9=
EXTT10=
EXTT11=
EXTT12=
PLAYORDER=
